<mxfile host="Electron" modified="2023-12-20T05:47:26.637Z" agent="Mozilla/5.0 (Windows NT 10.0; Win64; x64) AppleWebKit/537.36 (KHTML, like Gecko) draw.io/21.2.8 Chrome/112.0.5615.165 Electron/24.2.0 Safari/537.36" etag="AR_EpVkZjkkays06hDSw" version="21.2.8" type="device">
  <diagram name="Page-1" id="wdU2vlvLfLhHSGHgqa0V">
    <mxGraphModel dx="5186" dy="918" grid="1" gridSize="10" guides="1" tooltips="1" connect="1" arrows="1" fold="1" page="1" pageScale="1" pageWidth="3300" pageHeight="4681" background="#999999" math="0" shadow="0">
      <root>
        <mxCell id="0" />
        <mxCell id="1" parent="0" />
        <mxCell id="08-NsosBbDU-mmR43x8U-31" value="&lt;span style=&quot;font-size: 70px;&quot;&gt;Project templates: conan -vcpkg&lt;/span&gt;" style="text;html=1;strokeColor=none;fillColor=none;align=center;verticalAlign=middle;whiteSpace=wrap;rounded=0;" parent="1" vertex="1">
          <mxGeometry x="-2940" y="150" width="800" height="382.5" as="geometry" />
        </mxCell>
        <mxCell id="ajgb5w3C1FOOEMtCHraB-1" value="&lt;font style=&quot;font-size: 20px;&quot;&gt;lib1&lt;/font&gt;" style="rounded=0;whiteSpace=wrap;html=1;fillColor=#dae8fc;strokeColor=#6c8ebf;" parent="1" vertex="1">
          <mxGeometry x="-1850" y="270" width="210" height="60" as="geometry" />
        </mxCell>
        <mxCell id="ajgb5w3C1FOOEMtCHraB-2" value="&lt;font style=&quot;font-size: 20px;&quot;&gt;lib2&lt;br&gt;&lt;/font&gt;" style="rounded=0;whiteSpace=wrap;html=1;fillColor=#d5e8d4;strokeColor=#82b366;" parent="1" vertex="1">
          <mxGeometry x="-2010" y="420" width="210" height="60" as="geometry" />
        </mxCell>
        <mxCell id="ajgb5w3C1FOOEMtCHraB-3" value="&lt;font style=&quot;font-size: 20px;&quot;&gt;Arithmetic&lt;br&gt;&lt;/font&gt;" style="rounded=0;whiteSpace=wrap;html=1;fillColor=#ffe6cc;strokeColor=#d79b00;" parent="1" vertex="1">
          <mxGeometry x="-1670" y="420" width="210" height="60" as="geometry" />
        </mxCell>
        <mxCell id="ajgb5w3C1FOOEMtCHraB-4" value="&lt;font style=&quot;font-size: 20px;&quot;&gt;main(rooster target)&lt;br&gt;&lt;/font&gt;" style="rounded=0;whiteSpace=wrap;html=1;fillColor=#e1d5e7;strokeColor=#9673a6;" parent="1" vertex="1">
          <mxGeometry x="-1830" y="700" width="210" height="60" as="geometry" />
        </mxCell>
        <mxCell id="ajgb5w3C1FOOEMtCHraB-5" value="&lt;font style=&quot;font-size: 20px;&quot;&gt;Core&lt;br&gt;&lt;/font&gt;" style="rounded=0;whiteSpace=wrap;html=1;fillColor=#f8cecc;strokeColor=#b85450;" parent="1" vertex="1">
          <mxGeometry x="-1830" y="560" width="210" height="60" as="geometry" />
        </mxCell>
        <mxCell id="ajgb5w3C1FOOEMtCHraB-6" value="" style="endArrow=classic;html=1;rounded=0;" parent="1" edge="1">
          <mxGeometry width="50" height="50" relative="1" as="geometry">
            <mxPoint x="-1810" y="480" as="sourcePoint" />
            <mxPoint x="-1810" y="550" as="targetPoint" />
          </mxGeometry>
        </mxCell>
        <mxCell id="ajgb5w3C1FOOEMtCHraB-7" value="" style="endArrow=classic;html=1;rounded=0;" parent="1" edge="1">
          <mxGeometry width="50" height="50" relative="1" as="geometry">
            <mxPoint x="-1740" y="340" as="sourcePoint" />
            <mxPoint x="-1740" y="550" as="targetPoint" />
          </mxGeometry>
        </mxCell>
        <mxCell id="ajgb5w3C1FOOEMtCHraB-8" value="" style="endArrow=classic;html=1;rounded=0;" parent="1" edge="1">
          <mxGeometry width="50" height="50" relative="1" as="geometry">
            <mxPoint x="-1670" y="480" as="sourcePoint" />
            <mxPoint x="-1670" y="550" as="targetPoint" />
          </mxGeometry>
        </mxCell>
        <mxCell id="ajgb5w3C1FOOEMtCHraB-9" value="" style="endArrow=classic;html=1;rounded=0;" parent="1" edge="1">
          <mxGeometry width="50" height="50" relative="1" as="geometry">
            <mxPoint x="-1720" y="620" as="sourcePoint" />
            <mxPoint x="-1720" y="690" as="targetPoint" />
          </mxGeometry>
        </mxCell>
        <mxCell id="ajgb5w3C1FOOEMtCHraB-10" value="&lt;font style=&quot;font-size: 20px;&quot;&gt;VSCode debug integration&lt;/font&gt;" style="rounded=0;whiteSpace=wrap;html=1;fillColor=#dae8fc;strokeColor=#6c8ebf;" parent="1" vertex="1">
          <mxGeometry x="-1870" y="920" width="320" height="60" as="geometry" />
        </mxCell>
        <mxCell id="ajgb5w3C1FOOEMtCHraB-11" value="&lt;font style=&quot;font-size: 20px;&quot;&gt;VS Code test integration&lt;/font&gt;" style="rounded=0;whiteSpace=wrap;html=1;fillColor=#d5e8d4;strokeColor=#82b366;" parent="1" vertex="1">
          <mxGeometry x="-1870" y="1020" width="320" height="60" as="geometry" />
        </mxCell>
        <mxCell id="VgE0eSYM-QdGVbMSEI3z-1" value="&lt;font style=&quot;font-size: 20px;&quot;&gt;Code Editing&lt;/font&gt;" style="rounded=0;whiteSpace=wrap;html=1;fillColor=#dae8fc;strokeColor=#6c8ebf;" vertex="1" parent="1">
          <mxGeometry x="-710" y="350" width="240" height="60" as="geometry" />
        </mxCell>
        <mxCell id="VgE0eSYM-QdGVbMSEI3z-2" value="&lt;font style=&quot;font-size: 20px;&quot;&gt;Dependencies&lt;/font&gt;" style="rounded=0;whiteSpace=wrap;html=1;fillColor=#d5e8d4;strokeColor=#82b366;" vertex="1" parent="1">
          <mxGeometry x="-710" y="442.5" width="240" height="60" as="geometry" />
        </mxCell>
        <mxCell id="VgE0eSYM-QdGVbMSEI3z-3" value="&lt;font style=&quot;font-size: 20px;&quot;&gt;Formatting&lt;/font&gt;" style="rounded=0;whiteSpace=wrap;html=1;fillColor=#ffe6cc;strokeColor=#d79b00;" vertex="1" parent="1">
          <mxGeometry x="-710" y="540" width="240" height="60" as="geometry" />
        </mxCell>
        <mxCell id="VgE0eSYM-QdGVbMSEI3z-4" value="&lt;font style=&quot;font-size: 20px;&quot;&gt;Documentation&lt;/font&gt;" style="rounded=0;whiteSpace=wrap;html=1;fillColor=#fff2cc;strokeColor=#d6b656;" vertex="1" parent="1">
          <mxGeometry x="-710" y="630" width="240" height="60" as="geometry" />
        </mxCell>
        <mxCell id="VgE0eSYM-QdGVbMSEI3z-5" value="&lt;font style=&quot;font-size: 20px;&quot;&gt;Testing&lt;/font&gt;" style="rounded=0;whiteSpace=wrap;html=1;fillColor=#e1d5e7;strokeColor=#9673a6;" vertex="1" parent="1">
          <mxGeometry x="-710" y="730" width="240" height="60" as="geometry" />
        </mxCell>
        <mxCell id="VgE0eSYM-QdGVbMSEI3z-6" value="&lt;font style=&quot;font-size: 20px;&quot;&gt;Editor Integration(VS Code, CLion, Visual Studio)&lt;/font&gt;" style="rounded=0;whiteSpace=wrap;html=1;fillColor=#f8cecc;strokeColor=#b85450;" vertex="1" parent="1">
          <mxGeometry x="-710" y="820" width="240" height="90" as="geometry" />
        </mxCell>
      </root>
    </mxGraphModel>
  </diagram>
</mxfile>
